<svg id="dots" width="152" height="167" viewBox="0 0 152 167" fill="none" xmlns="http://www.w3.org/2000/svg"><circle cx="76" cy="124.711" r="3" fill="#437878"></circle><circle cx="76" cy="41.5666" r="3" fill="#437878"></circle><circle cx="40" cy="41.5666" r="3" fill="#71c5c5"></circle><circle cx="58" cy="31.1758" r="3" fill="#71c5c5"></circle><circle cx="70" cy="10.395" r="3" fill="#e8f3f3"></circle><circle cx="82" cy="10.395" r="3" fill="#e8f3f3"></circle><circle cx="58" cy="51.9632" r="3" fill="#366060"></circle><circle cx="58" cy="114.316" r="3" fill="#366060"></circle><circle cx="94" cy="31.1758" r="3" fill="#71c5c5"></circle><circle cx="58" cy="135.1" r="3" fill="#71c5c5"></circle><circle cx="94" cy="51.9632" r="3" fill="#366060"></circle><circle cx="94" cy="114.316" r="3" fill="#366060"></circle><circle cx="94" cy="135.1" r="3" fill="#71c5c5"></circle><circle cx="112" cy="41.5666" r="3" fill="#71c5c5"></circle><circle cx="40" cy="62.3531" r="3" fill="#437878"></circle><circle cx="40" cy="83.1384" r="3" fill="#366060"></circle><circle cx="52" cy="83.1384" r="3" fill="#314e4e"></circle><circle cx="64" cy="83.1384" r="3" fill="#254141"></circle><circle cx="76" cy="83.1384" r="3" fill="#254141"></circle><circle cx="88" cy="83.1384" r="3" fill="#254141"></circle><circle cx="100" cy="83.1384" r="3" fill="#314e4e"></circle><circle cx="22" cy="72.75" r="3" fill="#71c5c5"></circle><circle cx="22" cy="93.5336" r="3" fill="#71c5c5"></circle><circle cx="22" cy="114.321" r="3" fill="#afdbdb"></circle><circle cx="10" cy="114.321" r="3" fill="#e8f3f3"></circle><circle cx="40" cy="103.924" r="3" fill="#437878"></circle><circle cx="112" cy="62.3531" r="3" fill="#437878"></circle><circle cx="40" cy="124.711" r="3" fill="#71c5c5"></circle><circle cx="112" cy="83.1384" r="3" fill="#366060"></circle><circle cx="130" cy="93.5336" r="3" fill="#71c5c5"></circle><circle cx="130" cy="72.75" r="3" fill="#71c5c5"></circle><circle cx="130" cy="51.96" r="3" fill="#afdbdb"></circle><circle cx="142" cy="51.96" r="3" fill="#e8f3f3"></circle><circle cx="130" cy="114.321" r="3" fill="#afdbdb"></circle><circle cx="142" cy="114.321" r="3" fill="#e8f3f3"></circle><circle cx="112" cy="103.924" r="3" fill="#437878"></circle><circle cx="112" cy="124.711" r="3" fill="#71c5c5"></circle><circle cx="100" cy="62.3531" r="3" fill="#314e4e"></circle><circle cx="88" cy="124.711" r="3" fill="#437878"></circle><circle cx="64" cy="41.5666" r="3" fill="#437878"></circle><circle cx="100" cy="41.5666" r="3" fill="#458a8a"></circle><circle cx="100" cy="124.711" r="3" fill="#458a8a"></circle><circle cx="88" cy="41.5666" r="3" fill="#437878"></circle><circle cx="64" cy="20.7853" r="3" fill="#afdbdb"></circle><circle cx="52" cy="41.5666" r="3" fill="#458a8a"></circle><circle cx="100" cy="20.7853" r="3" fill="#d4eaea"></circle><circle cx="28" cy="41.5666" r="3" fill="#afdbdb"></circle><circle cx="225" cy="51.96" r="3" fill="#afdbdb"></circle><circle cx="163" cy="41.5666" r="3" fill="#e8f3f3"></circle><circle cx="103" cy="51.96" r="3" fill="#e8f3f3"></circle><circle cx="88" cy="20.7853" r="3" fill="#afdbdb"></circle><circle cx="76" cy="20.7853" r="3" fill="#afdbdb"></circle><circle cx="52" cy="20.7853" r="3" fill="#d4eaea"></circle><circle cx="405" cy="20.7853" r="3" fill="#e8f3f3"></circle><circle cx="112" cy="20.7853" r="3" fill="#e8f3f3"></circle><circle cx="405" cy="145.491" r="3" fill="#e8f3f3"></circle><circle cx="112" cy="145.491" r="3" fill="#e8f3f3"></circle><circle cx="70" cy="31.1758" r="3" fill="#4ba2a2"></circle><circle cx="46" cy="31.1758" r="3" fill="#afdbdb"></circle><circle cx="34" cy="31.1758" r="3" fill="#d4eaea"></circle><circle cx="82" cy="31.1758" r="3" fill="#4ba2a2"></circle><circle cx="70" cy="51.9632" r="3" fill="#314e4e"></circle><circle cx="82" cy="51.9632" r="3" fill="#314e4e"></circle><circle cx="46" cy="51.9632" r="3" fill="#437878"></circle><circle cx="46" cy="93.5336" r="3" fill="#314e4e"></circle><circle cx="34" cy="51.9632" r="3" fill="#4ba2a2"></circle><circle cx="58" cy="93.5336" r="3" fill="#314e4e"></circle><circle cx="70" cy="93.5336" r="3" fill="#254141"></circle><circle cx="82" cy="93.5336" r="3" fill="#254141"></circle><circle cx="94" cy="93.5336" r="3" fill="#314e4e"></circle><circle cx="70" cy="114.316" r="3" fill="#314e4e"></circle><circle cx="82" cy="114.316" r="3" fill="#314e4e"></circle><circle cx="46" cy="114.316" r="3" fill="#437878"></circle><circle cx="34" cy="114.316" r="3" fill="#4ba2a2"></circle><circle cx="70" cy="135.1" r="3" fill="#4ba2a2"></circle><circle cx="34" cy="135.1" r="3" fill="#d4eaea"></circle><circle cx="82" cy="135.1" r="3" fill="#4ba2a2"></circle><circle cx="70" cy="155.882" r="3" fill="#e8f3f3"></circle><circle cx="46" cy="135.1" r="3" fill="#afdbdb"></circle><circle cx="82" cy="155.882" r="3" fill="#e8f3f3"></circle><circle cx="106" cy="31.1758" r="3" fill="#afdbdb"></circle><circle cx="106" cy="51.9632" r="3" fill="#437878"></circle><circle cx="118" cy="51.9632" r="3" fill="#4ba2a2"></circle><circle cx="118" cy="31.1758" r="3" fill="#d4eaea"></circle><circle cx="106" cy="93.5336" r="3" fill="#314e4e"></circle><circle cx="118" cy="93.5336" r="3" fill="#437878"></circle><circle cx="106" cy="114.316" r="3" fill="#366060"></circle><circle cx="118" cy="114.316" r="3" fill="#4ba2a2"></circle><circle cx="106" cy="135.1" r="3" fill="#afdbdb"></circle><circle cx="52" cy="62.3531" r="3" fill="#314e4e"></circle><circle cx="118" cy="135.1" r="3" fill="#d4eaea"></circle><circle cx="124" cy="41.5666" r="3" fill="#afdbdb"></circle><circle cx="136" cy="41.5666" r="3" fill="#e8f3f3"></circle><circle cx="64" cy="62.3531" r="3" fill="#314e4e"></circle><circle cx="76" cy="62.3531" r="3" fill="#314e4e"></circle><circle cx="88" cy="62.3531" r="3" fill="#314e4e"></circle><circle cx="28" cy="62.3531" r="3" fill="#4ba2a2"></circle><circle cx="16" cy="62.3531" r="3" fill="#afdbdb"></circle><circle cx="46" cy="72.75" r="3" fill="#314e4e"></circle><circle cx="28" cy="83.1384" r="3" fill="#458a8a"></circle><circle cx="16" cy="83.1384" r="3" fill="#afdbdb"></circle><circle cx="34" cy="72.75" r="3" fill="#437878"></circle><circle cx="52" cy="103.924" r="3" fill="#314e4e"></circle><circle cx="58" cy="72.75" r="3" fill="#314e4e"></circle><circle cx="70" cy="72.75" r="3" fill="#254141"></circle><circle cx="82" cy="72.75" r="3" fill="#254141"></circle><circle cx="94" cy="72.75" r="3" fill="#314e4e"></circle><circle cx="10" cy="72.75" r="3" fill="#d4eaea"></circle><circle cx="34" cy="93.5336" r="3" fill="#437878"></circle><circle cx="10" cy="93.5336" r="3" fill="#d4eaea"></circle><circle cx="64" cy="103.924" r="3" fill="#314e4e"></circle><circle cx="76" cy="103.924" r="3" fill="#314e4e"></circle><circle cx="28" cy="103.924" r="3" fill="#4ba2a2"></circle><circle cx="16" cy="103.924" r="3" fill="#afdbdb"></circle><circle cx="88" cy="103.924" r="3" fill="#314e4e"></circle><circle cx="124" cy="62.3531" r="3" fill="#4ba2a2"></circle><circle cx="136" cy="62.3531" r="3" fill="#afdbdb"></circle><circle cx="52" cy="124.711" r="3" fill="#458a8a"></circle><circle cx="52" cy="145.492" r="3" fill="#d4eaea"></circle><circle cx="88" cy="145.492" r="3" fill="#afdbdb"></circle><circle cx="64" cy="145.492" r="3" fill="#afdbdb"></circle><circle cx="28" cy="124.711" r="3" fill="#afdbdb"></circle><circle cx="76" cy="145.492" r="3" fill="#afdbdb"></circle><circle cx="100" cy="145.492" r="3" fill="#d4eaea"></circle><circle cx="64" cy="124.711" r="3" fill="#437878"></circle><circle cx="16" cy="124.711" r="3" fill="#e8f3f3"></circle><circle cx="124" cy="83.1384" r="3" fill="#458a8a"></circle><circle cx="136" cy="83.1384" r="3" fill="#afdbdb"></circle><circle cx="142" cy="72.75" r="3" fill="#d4eaea"></circle><circle cx="118" cy="72.75" r="3" fill="#437878"></circle><circle cx="106" cy="72.75" r="3" fill="#314e4e"></circle><circle cx="142" cy="93.5336" r="3" fill="#d4eaea"></circle><circle cx="124" cy="103.924" r="3" fill="#4ba2a2"></circle><circle cx="136" cy="103.924" r="3" fill="#afdbdb"></circle><circle cx="100" cy="103.924" r="3" fill="#314e4e"></circle><circle cx="124" cy="124.711" r="3" fill="#afdbdb"></circle><circle cx="136" cy="124.711" r="3" fill="#e8f3f3"></circle><circle cx="148" cy="83.1384" r="3" fill="#e8f3f3"></circle><circle cx="4" cy="83.1384" r="3" fill="#e8f3f3"></circle></svg>