<?xml version="1.0" standalone="no"?>
<!DOCTYPE svg PUBLIC "-//W3C//DTD SVG 20010904//EN"
 "http://www.w3.org/TR/2001/REC-SVG-20010904/DTD/svg10.dtd">
<svg version="1.0" xmlns="http://www.w3.org/2000/svg"
 width="400.000000pt" height="400.000000pt" viewBox="0 0 400.000000 400.000000"
 preserveAspectRatio="xMidYMid meet">
<metadata>
Created by potrace 1.14, written by Peter Selinger 2001-2017
</metadata>
<g transform="translate(0.000000,400.000000) scale(0.100000,-0.100000)"
fill="#000000" stroke="none">
<path d="M1823 3286 c-95 -55 -173 -102 -173 -105 0 -3 10 -23 23 -43 l22 -37
128 74 127 74 0 -149 0 -150 50 0 50 0 0 149 0 149 127 -73 128 -74 22 37 c13
20 23 39 23 42 0 5 -333 199 -350 205 -3 1 -83 -43 -177 -99z"/>
<path d="M977 2797 l-177 -101 0 -203 0 -203 50 0 49 0 3 144 3 145 120 -69
c66 -38 123 -70 126 -70 3 0 15 18 27 39 l23 40 -73 42 c-175 101 -178 103
-165 115 6 6 62 39 122 74 61 34 112 64 113 66 2 1 -7 21 -20 43 l-24 40 -177
-102z"/>
<path d="M2821 2858 c-19 -33 -20 -42 -10 -49 8 -5 62 -37 121 -70 60 -33 110
-64 112 -68 5 -7 -19 -22 -171 -110 l-73 -42 20 -39 c11 -22 24 -40 28 -40 4
0 61 32 127 70 l120 69 3 -145 3 -144 49 0 50 0 0 203 0 203 -137 79 c-76 43
-156 89 -178 101 l-40 23 -24 -41z"/>
<path d="M1876 2864 c-19 -18 -21 -45 -4 -62 39 -39 100 17 63 58 -22 24 -38
25 -59 4z"/>
<path d="M2066 2861 c-23 -25 -13 -59 20 -67 46 -12 72 37 38 70 -21 21 -37
20 -58 -3z"/>
<path d="M1580 2695 c-17 -20 -5 -62 20 -70 44 -14 80 41 48 73 -17 17 -53 15
-68 -3z"/>
<path d="M1770 2690 c-15 -29 -3 -59 26 -66 32 -8 54 11 54 46 0 43 -60 57
-80 20z"/>
<path d="M1960 2689 c-14 -26 11 -69 40 -69 11 0 27 11 35 24 23 34 5 66 -35
66 -19 0 -33 -7 -40 -21z"/>
<path d="M2162 2698 c-17 -17 -15 -53 3 -68 20 -17 62 -5 70 20 14 44 -41 80
-73 48z"/>
<path d="M2352 2698 c-32 -32 4 -87 48 -73 25 8 37 50 20 70 -15 18 -51 20
-68 3z"/>
<path d="M1490 2530 c-11 -11 -20 -24 -20 -30 0 -5 9 -19 20 -30 11 -11 25
-20 30 -20 6 0 19 9 30 20 11 11 20 25 20 30 0 6 -9 19 -20 30 -11 11 -24 20
-30 20 -5 0 -19 -9 -30 -20z"/>
<path d="M1688 2539 c-26 -14 -23 -65 3 -79 16 -9 26 -8 45 5 29 18 31 46 6
68 -21 19 -30 20 -54 6z"/>
<path d="M1878 2539 c-28 -16 -23 -67 7 -81 46 -21 86 40 49 76 -18 18 -32 20
-56 5z"/>
<path d="M2066 2534 c-9 -8 -16 -24 -16 -34 0 -20 25 -50 41 -50 27 0 49 22
49 50 0 44 -44 64 -74 34z"/>
<path d="M2257 2532 c-24 -26 -21 -49 7 -67 33 -22 66 -5 66 33 0 50 -42 69
-73 34z"/>
<path d="M2450 2530 c-11 -11 -20 -24 -20 -30 0 -5 9 -19 20 -30 11 -11 25
-20 30 -20 6 0 19 9 30 20 11 11 20 25 20 30 0 6 -9 19 -20 30 -11 11 -24 20
-30 20 -5 0 -19 -9 -30 -20z"/>
<path d="M1290 2521 c-16 -31 4 -63 37 -59 34 4 52 32 37 56 -16 26 -60 28
-74 3z"/>
<path d="M2634 2515 c-4 -15 -1 -32 6 -40 18 -21 57 -19 70 5 16 30 -4 60 -40
60 -23 0 -31 -5 -36 -25z"/>
<path d="M1202 2368 c-16 -16 -15 -53 3 -68 19 -16 45 -10 61 15 26 39 -31 86
-64 53z"/>
<path d="M1392 2368 c-7 -7 -12 -21 -12 -33 0 -12 5 -26 12 -33 7 -7 21 -12
33 -12 12 0 26 5 33 12 7 7 12 21 12 33 0 12 -5 26 -12 33 -7 7 -21 12 -33 12
-12 0 -26 -5 -33 -12z"/>
<path d="M1582 2368 c-7 -7 -12 -21 -12 -33 0 -12 5 -26 12 -33 7 -7 21 -12
33 -12 12 0 26 5 33 12 7 7 12 21 12 33 0 12 -5 26 -12 33 -7 7 -21 12 -33 12
-12 0 -26 -5 -33 -12z"/>
<path d="M2352 2368 c-7 -7 -12 -21 -12 -33 0 -12 5 -26 12 -33 7 -7 21 -12
33 -12 12 0 26 5 33 12 7 7 12 21 12 33 0 12 -5 26 -12 33 -7 7 -21 12 -33 12
-12 0 -26 -5 -33 -12z"/>
<path d="M2542 2368 c-7 -7 -12 -21 -12 -33 0 -12 5 -26 12 -33 28 -28 78 -7
78 33 0 27 -18 45 -45 45 -12 0 -26 -5 -33 -12z"/>
<path d="M2734 2355 c-16 -24 -16 -27 1 -45 32 -35 75 -19 75 27 0 21 -25 43
-49 43 -6 0 -18 -11 -27 -25z"/>
<path d="M1671 2194 c-12 -19 -19 -39 -16 -43 2 -4 70 -45 150 -91 l145 -84 0
-178 0 -178 50 0 50 0 0 178 0 178 145 84 c80 46 148 87 150 91 5 8 -33 79
-42 79 -3 0 -72 -39 -154 -86 l-149 -86 -150 86 c-82 47 -151 86 -154 86 -2 0
-14 -16 -25 -36z"/>
<path d="M1490 2200 c-11 -11 -20 -26 -20 -33 0 -18 32 -47 52 -47 17 0 48 31
48 48 0 15 -36 52 -50 52 -5 0 -19 -9 -30 -20z"/>
<path d="M2450 2200 c-11 -11 -20 -26 -20 -33 0 -18 32 -47 52 -47 17 0 48 31
48 48 0 15 -36 52 -50 52 -5 0 -19 -9 -30 -20z"/>
<path d="M1288 2186 c-9 -22 -8 -29 7 -46 35 -38 79 -16 73 37 -2 23 -8 29
-35 31 -27 3 -35 -1 -45 -22z"/>
<path d="M2637 2203 c-4 -3 -7 -19 -7 -35 0 -40 41 -59 70 -33 36 33 19 75
-30 75 -15 0 -30 -3 -33 -7z"/>
<path d="M1208 2039 c-36 -20 -19 -79 23 -79 39 0 56 32 34 66 -17 26 -30 29
-57 13z"/>
<path d="M1398 2039 c-25 -14 -22 -55 4 -73 19 -13 25 -14 43 -2 26 17 31 49
10 70 -19 18 -33 20 -57 5z"/>
<path d="M2548 2039 c-41 -23 -4 -94 43 -82 23 6 36 49 22 72 -12 20 -42 24
-65 10z"/>
<path d="M2739 2031 c-21 -16 -22 -22 -11 -45 11 -26 34 -32 66 -20 23 9 21
61 -3 74 -25 13 -25 13 -52 -9z"/>
<path d="M1290 1860 c-15 -29 -3 -59 26 -66 30 -8 54 11 54 40 0 46 -59 64
-80 26z"/>
<path d="M1480 1860 c-22 -41 13 -80 59 -65 25 8 35 38 21 65 -15 27 -65 27
-80 0z"/>
<path d="M2440 1860 c-14 -27 -4 -57 21 -65 46 -15 81 24 59 65 -15 27 -65 27
-80 0z"/>
<path d="M2642 1868 c-7 -7 -12 -21 -12 -33 0 -47 62 -63 81 -21 22 47 -33 90
-69 54z"/>
<path d="M802 1513 l3 -207 170 -98 c94 -54 173 -98 176 -98 3 0 15 18 27 39
l23 40 -73 42 c-153 88 -177 103 -172 110 2 4 52 35 112 68 59 33 113 65 121
70 11 7 10 15 -8 45 -13 20 -27 36 -33 36 -6 0 -61 -29 -123 -65 -61 -36 -115
-65 -118 -65 -4 0 -7 65 -7 145 l0 145 -50 0 -50 0 2 -207z"/>
<path d="M1410 1712 c-56 -19 -26 -105 30 -87 21 7 36 46 25 64 -10 17 -39 29
-55 23z"/>
<path d="M1585 1700 c-36 -40 7 -96 55 -70 27 14 27 65 1 80 -27 14 -35 13
-56 -10z"/>
<path d="M2358 1709 c-25 -14 -23 -65 2 -79 48 -26 91 30 55 70 -20 22 -32 24
-57 9z"/>
<path d="M2550 1702 c-45 -36 -1 -99 50 -72 24 13 26 52 4 74 -20 20 -27 20
-54 -2z"/>
<path d="M3107 1713 c-4 -3 -7 -69 -7 -145 0 -76 -3 -138 -7 -138 -5 0 -62 32
-127 70 l-120 69 -23 -41 c-19 -32 -21 -43 -11 -50 7 -4 61 -36 120 -69 60
-33 110 -64 112 -68 5 -7 -19 -22 -171 -110 l-73 -42 20 -39 c11 -22 24 -40
28 -40 4 0 84 45 177 99 l170 98 3 206 2 207 -43 0 c-24 0 -47 -3 -50 -7z"/>
<path d="M1202 1698 c-27 -27 -6 -68 35 -68 29 0 48 33 33 60 -12 22 -49 27
-68 8z"/>
<path d="M2730 1690 c-16 -30 4 -60 40 -60 23 0 31 5 36 25 4 15 1 32 -6 40
-18 21 -57 19 -70 -5z"/>
<path d="M1295 1526 c-8 -13 -13 -31 -9 -40 8 -22 50 -31 69 -16 21 18 19 57
-4 70 -29 15 -39 13 -56 -14z"/>
<path d="M1485 1526 c-23 -34 -5 -66 35 -66 40 0 58 32 35 66 -8 13 -24 24
-35 24 -11 0 -27 -11 -35 -24z"/>
<path d="M1676 1529 c-20 -30 -6 -63 28 -67 49 -6 74 38 40 72 -22 22 -50 20
-68 -5z"/>
<path d="M1872 1538 c-7 -7 -12 -21 -12 -33 0 -12 5 -26 12 -33 7 -7 21 -12
33 -12 12 0 26 5 33 12 7 7 12 21 12 33 0 12 -5 26 -12 33 -7 7 -21 12 -33 12
-12 0 -26 -5 -33 -12z"/>
<path d="M2062 1538 c-7 -7 -12 -21 -12 -33 0 -12 5 -26 12 -33 7 -7 21 -12
33 -12 12 0 26 5 33 12 7 7 12 21 12 33 0 12 -5 26 -12 33 -7 7 -21 12 -33 12
-12 0 -26 -5 -33 -12z"/>
<path d="M2256 1535 c-33 -33 -13 -75 36 -75 20 0 31 7 37 23 18 46 -38 86
-73 52z"/>
<path d="M2445 1530 c-27 -30 -7 -70 35 -70 42 0 62 40 35 70 -10 11 -26 20
-35 20 -9 0 -25 -9 -35 -20z"/>
<path d="M2648 1539 c-34 -19 -16 -79 23 -79 19 0 49 25 49 41 0 11 -37 49
-47 49 -5 0 -16 -5 -25 -11z"/>
<path d="M1580 1365 c-17 -20 -5 -62 20 -70 44 -14 80 41 48 73 -17 17 -53 15
-68 -3z"/>
<path d="M1770 1360 c-15 -29 -3 -59 26 -66 30 -8 54 11 54 40 0 46 -59 64
-80 26z"/>
<path d="M1960 1359 c-9 -16 -8 -26 5 -45 19 -29 46 -31 70 -4 15 17 16 24 7
45 -15 32 -66 35 -82 4z"/>
<path d="M2162 1368 c-17 -17 -15 -53 3 -68 20 -17 62 -5 70 20 14 44 -41 80
-73 48z"/>
<path d="M2352 1368 c-19 -19 -14 -56 8 -68 43 -23 83 17 60 60 -12 22 -49 27
-68 8z"/>
<path d="M1872 1198 c-27 -27 -6 -68 35 -68 31 0 52 42 33 65 -15 18 -51 20
-68 3z"/>
<path d="M2059 1186 c-15 -33 4 -58 39 -54 55 7 54 70 -1 76 -21 3 -30 -3 -38
-22z"/>
<path d="M1950 905 c0 -80 -2 -145 -4 -145 -2 0 -58 32 -124 70 -66 39 -123
70 -125 70 -9 0 -47 -72 -42 -80 3 -4 81 -52 175 -105 l170 -98 170 98 c94 54
173 101 175 106 5 7 -33 79 -41 79 -2 0 -59 -31 -127 -70 l-122 -70 -3 145 -3
145 -49 0 -50 0 0 -145z"/>
</g>
</svg>
