<svg width="615" height="168" viewBox="0 0 615 168" fill="none" xmlns="http://www.w3.org/2000/svg">
<rect width="613" height="168" transform="translate(1)" fill="white"/>
<path d="M178.149 99.4436V69.1555H168.117V65.8435H192.213V69.1555H182.181V99.4436H178.149Z" fill="#3C3C3C"/>
<path d="M196.801 99.4436V64.8835H200.833V79.7155C201.633 78.2435 202.769 77.1075 204.241 76.3075C205.713 75.4755 207.313 75.0595 209.041 75.0595C211.793 75.0595 214.001 75.9235 215.665 77.6515C217.329 79.3475 218.161 81.9715 218.161 85.5235V99.4436H214.177V85.9555C214.177 80.9955 212.177 78.5155 208.177 78.5155C206.097 78.5155 204.353 79.2675 202.945 80.7715C201.537 82.2435 200.833 84.3555 200.833 87.1075V99.4436H196.801Z" fill="#3C3C3C"/>
<path d="M226.717 70.3555C225.917 70.3555 225.245 70.0995 224.701 69.5875C224.189 69.0435 223.933 68.3715 223.933 67.5715C223.933 66.8035 224.189 66.1635 224.701 65.6515C225.245 65.1395 225.917 64.8835 226.717 64.8835C227.485 64.8835 228.141 65.1395 228.685 65.6515C229.229 66.1635 229.501 66.8035 229.501 67.5715C229.501 68.3715 229.229 69.0435 228.685 69.5875C228.141 70.0995 227.485 70.3555 226.717 70.3555ZM224.701 99.4436V75.6355H228.733V99.4436H224.701Z" fill="#3C3C3C"/>
<path d="M235.754 99.4436V75.6355H239.402L239.738 80.1955C240.474 78.6275 241.594 77.3795 243.098 76.4515C244.602 75.5235 246.458 75.0595 248.666 75.0595V79.2835H247.562C246.154 79.2835 244.858 79.5395 243.674 80.0515C242.49 80.5315 241.546 81.3635 240.842 82.5475C240.138 83.7315 239.786 85.3635 239.786 87.4435V99.4436H235.754Z" fill="#3C3C3C"/>
<path d="M263.101 100.02C260.733 100.02 258.653 99.4755 256.861 98.3876C255.101 97.2995 253.725 95.8116 252.733 93.9235C251.773 92.0355 251.293 89.8915 251.293 87.4915C251.293 85.0915 251.789 82.9635 252.781 81.1075C253.773 79.2195 255.149 77.7475 256.909 76.6915C258.669 75.6035 260.749 75.0595 263.149 75.0595C265.101 75.0595 266.829 75.4595 268.333 76.2595C269.837 77.0595 271.005 78.1795 271.837 79.6195V64.8835H275.869V99.4436H272.221L271.837 95.5075C271.069 96.6595 269.965 97.6996 268.525 98.6275C267.085 99.5555 265.277 100.02 263.101 100.02ZM263.533 96.5155C265.133 96.5155 266.541 96.1475 267.757 95.4115C269.005 94.6435 269.965 93.5875 270.637 92.2435C271.341 90.8995 271.693 89.3315 271.693 87.5395C271.693 85.7475 271.341 84.1795 270.637 82.8355C269.965 81.4915 269.005 80.4515 267.757 79.7155C266.541 78.9475 265.133 78.5635 263.533 78.5635C261.965 78.5635 260.557 78.9475 259.309 79.7155C258.093 80.4515 257.133 81.4915 256.429 82.8355C255.757 84.1795 255.421 85.7475 255.421 87.5395C255.421 89.3315 255.757 90.8995 256.429 92.2435C257.133 93.5875 258.093 94.6435 259.309 95.4115C260.557 96.1475 261.965 96.5155 263.533 96.5155Z" fill="#3C3C3C"/>
<path d="M295.384 99.4436V65.8435H306.424C309.048 65.8435 311.208 66.2755 312.904 67.1395C314.6 68.0035 315.848 69.1715 316.648 70.6435C317.48 72.1155 317.896 73.7795 317.896 75.6355C317.896 77.4595 317.496 79.1075 316.696 80.5795C315.896 82.0515 314.648 83.2355 312.952 84.1315C311.256 84.9955 309.08 85.4275 306.424 85.4275H299.416V99.4436H295.384ZM299.416 82.0195H306.328C309.016 82.0195 310.92 81.4595 312.04 80.3395C313.192 79.1875 313.768 77.6195 313.768 75.6355C313.768 73.6195 313.192 72.0515 312.04 70.9315C310.92 69.7795 309.016 69.2035 306.328 69.2035H299.416V82.0195Z" fill="#3C3C3C"/>
<path d="M322.941 99.4436V64.8835H326.973V99.4436H322.941Z" fill="#3C3C3C"/>
<path d="M341.502 100.02C339.518 100.02 337.87 99.6835 336.558 99.0115C335.246 98.3395 334.27 97.4436 333.63 96.3235C332.99 95.2035 332.67 93.9875 332.67 92.6755C332.67 90.2435 333.598 88.3715 335.454 87.0595C337.31 85.7475 339.838 85.0915 343.038 85.0915H349.47V84.8035C349.47 82.7235 348.926 81.1555 347.838 80.0995C346.75 79.0115 345.294 78.4675 343.47 78.4675C341.902 78.4675 340.542 78.8675 339.39 79.6675C338.27 80.4355 337.566 81.5715 337.278 83.0755H333.15C333.31 81.3475 333.886 79.8915 334.878 78.7075C335.902 77.5235 337.166 76.6275 338.67 76.0195C340.174 75.3795 341.774 75.0595 343.47 75.0595C346.798 75.0595 349.294 75.9555 350.958 77.7475C352.654 79.5075 353.502 81.8595 353.502 84.8035V99.4436H349.902L349.662 95.1715C348.99 96.5155 347.998 97.6675 346.686 98.6275C345.406 99.5555 343.678 100.02 341.502 100.02ZM342.126 96.6115C343.662 96.6115 344.974 96.2115 346.062 95.4115C347.182 94.6115 348.03 93.5715 348.606 92.2915C349.182 91.0115 349.47 89.6675 349.47 88.2595V88.2115H343.374C341.006 88.2115 339.326 88.6275 338.334 89.4595C337.374 90.2595 336.894 91.2675 336.894 92.4835C336.894 93.7315 337.342 94.7395 338.238 95.5075C339.166 96.2435 340.462 96.6115 342.126 96.6115Z" fill="#3C3C3C"/>
<path d="M370.495 100.02C368.223 100.02 366.175 99.5075 364.351 98.4835C362.559 97.4275 361.135 95.9715 360.079 94.1155C359.055 92.2275 358.543 90.0355 358.543 87.5395C358.543 85.0435 359.055 82.8675 360.079 81.0115C361.135 79.1235 362.559 77.6675 364.351 76.6435C366.175 75.5875 368.223 75.0595 370.495 75.0595C373.311 75.0595 375.679 75.7955 377.599 77.2675C379.551 78.7395 380.783 80.7075 381.295 83.1715H377.167C376.847 81.6995 376.063 80.5635 374.815 79.7635C373.567 78.9315 372.111 78.5155 370.447 78.5155C369.103 78.5155 367.839 78.8515 366.655 79.5235C365.471 80.1955 364.511 81.2035 363.775 82.5475C363.039 83.8915 362.671 85.5555 362.671 87.5395C362.671 89.5235 363.039 91.1875 363.775 92.5315C364.511 93.8755 365.471 94.8995 366.655 95.6035C367.839 96.2755 369.103 96.6115 370.447 96.6115C372.111 96.6115 373.567 96.2115 374.815 95.4115C376.063 94.5795 376.847 93.4115 377.167 91.9075H381.295C380.815 94.3075 379.599 96.2595 377.647 97.7635C375.695 99.2675 373.311 100.02 370.495 100.02Z" fill="#3C3C3C"/>
<path d="M397.63 100.02C395.358 100.02 393.342 99.5075 391.582 98.4835C389.822 97.4275 388.43 95.9715 387.406 94.1155C386.414 92.2595 385.918 90.0675 385.918 87.5395C385.918 85.0435 386.414 82.8675 387.406 81.0115C388.398 79.1235 389.774 77.6675 391.534 76.6435C393.326 75.5875 395.39 75.0595 397.726 75.0595C400.03 75.0595 402.014 75.5875 403.678 76.6435C405.374 77.6675 406.67 79.0275 407.566 80.7235C408.462 82.4195 408.91 84.2435 408.91 86.1955C408.91 86.5475 408.894 86.8995 408.862 87.2515C408.862 87.6035 408.862 88.0035 408.862 88.4515H389.902C389.998 90.2755 390.414 91.7955 391.15 93.0115C391.918 94.1955 392.862 95.0915 393.982 95.6995C395.134 96.3075 396.35 96.6115 397.63 96.6115C399.294 96.6115 400.686 96.2275 401.806 95.4595C402.926 94.6915 403.742 93.6516 404.254 92.3396H408.238C407.598 94.5476 406.366 96.3875 404.542 97.8596C402.75 99.2995 400.446 100.02 397.63 100.02ZM397.63 78.4675C395.71 78.4675 393.998 79.0595 392.494 80.2435C391.022 81.3955 390.174 83.0915 389.95 85.3315H404.926C404.83 83.1875 404.094 81.5075 402.718 80.2915C401.342 79.0755 399.646 78.4675 397.63 78.4675Z" fill="#3C3C3C"/>
<path d="M427.197 99.4436V65.8435H431.901L443.997 89.2675L455.997 65.8435H460.749V99.4436H456.717V73.0435L445.485 94.6435H442.461L431.229 73.0915V99.4436H427.197Z" fill="#3C3C3C"/>
<path d="M475.517 100.02C473.533 100.02 471.885 99.6835 470.573 99.0115C469.261 98.3395 468.285 97.4436 467.645 96.3235C467.005 95.2035 466.685 93.9875 466.685 92.6755C466.685 90.2435 467.613 88.3715 469.469 87.0595C471.325 85.7475 473.853 85.0915 477.053 85.0915H483.485V84.8035C483.485 82.7235 482.941 81.1555 481.853 80.0995C480.765 79.0115 479.309 78.4675 477.485 78.4675C475.917 78.4675 474.557 78.8675 473.405 79.6675C472.285 80.4355 471.581 81.5715 471.293 83.0755H467.165C467.325 81.3475 467.901 79.8915 468.893 78.7075C469.917 77.5235 471.181 76.6275 472.685 76.0195C474.189 75.3795 475.789 75.0595 477.485 75.0595C480.813 75.0595 483.309 75.9555 484.973 77.7475C486.669 79.5075 487.517 81.8595 487.517 84.8035V99.4436H483.917L483.677 95.1715C483.005 96.5155 482.013 97.6675 480.701 98.6275C479.421 99.5555 477.693 100.02 475.517 100.02ZM476.141 96.6115C477.677 96.6115 478.989 96.2115 480.077 95.4115C481.197 94.6115 482.045 93.5715 482.621 92.2915C483.197 91.0115 483.485 89.6675 483.485 88.2595V88.2115H477.389C475.021 88.2115 473.341 88.6275 472.349 89.4595C471.389 90.2595 470.909 91.2675 470.909 92.4835C470.909 93.7315 471.357 94.7395 472.253 95.5075C473.181 96.2435 474.477 96.6115 476.141 96.6115Z" fill="#3C3C3C"/>
<path d="M493.566 99.4436V64.8835H497.598V85.6675L507.342 75.6355H512.286L501.726 86.3875L513.63 99.4436H508.494L497.598 87.1075V99.4436H493.566Z" fill="#3C3C3C"/>
<path d="M520.202 70.3555C519.402 70.3555 518.73 70.0995 518.186 69.5875C517.674 69.0435 517.418 68.3715 517.418 67.5715C517.418 66.8035 517.674 66.1635 518.186 65.6515C518.73 65.1395 519.402 64.8835 520.202 64.8835C520.97 64.8835 521.626 65.1395 522.17 65.6515C522.714 66.1635 522.986 66.8035 522.986 67.5715C522.986 68.3715 522.714 69.0435 522.17 69.5875C521.626 70.0995 520.97 70.3555 520.202 70.3555ZM518.186 99.4436V75.6355H522.218V99.4436H518.186Z" fill="#3C3C3C"/>
<path d="M529.238 99.4436V75.6355H532.886L533.126 79.9075C533.894 78.4035 534.998 77.2195 536.438 76.3555C537.878 75.4915 539.51 75.0595 541.334 75.0595C544.15 75.0595 546.39 75.9235 548.054 77.6515C549.75 79.3475 550.598 81.9715 550.598 85.5235V99.4436H546.566V85.9555C546.566 80.9955 544.518 78.5155 540.422 78.5155C538.374 78.5155 536.662 79.2675 535.286 80.7715C533.942 82.2435 533.27 84.3555 533.27 87.1075V99.4436H529.238Z" fill="#3C3C3C"/>
<path d="M566.115 91.9555C564.771 91.9555 563.539 91.7795 562.419 91.4275L560.019 93.6835C560.371 93.9395 560.803 94.1635 561.315 94.3555C561.859 94.5155 562.627 94.6755 563.619 94.8355C564.611 94.9635 566.003 95.1075 567.795 95.2675C570.995 95.4915 573.283 96.2275 574.659 97.4755C576.035 98.7235 576.723 100.356 576.723 102.372C576.723 103.748 576.339 105.06 575.571 106.308C574.835 107.556 573.683 108.58 572.115 109.38C570.579 110.18 568.595 110.58 566.163 110.58C564.019 110.58 562.115 110.292 560.451 109.716C558.787 109.172 557.491 108.324 556.563 107.172C555.635 106.052 555.171 104.628 555.171 102.9C555.171 102.004 555.411 101.028 555.891 99.9715C556.371 98.9475 557.267 97.9715 558.579 97.0435C557.875 96.7555 557.267 96.4515 556.755 96.1315C556.275 95.7795 555.827 95.3955 555.411 94.9795V93.8755L559.491 89.8435C557.603 88.2435 556.659 86.1315 556.659 83.5075C556.659 81.9395 557.027 80.5155 557.763 79.2355C558.499 77.9555 559.571 76.9475 560.979 76.2115C562.387 75.4435 564.099 75.0595 566.115 75.0595C567.491 75.0595 568.739 75.2515 569.859 75.6355H578.643V78.6595L574.179 78.8515C575.107 80.1955 575.571 81.7475 575.571 83.5075C575.571 85.0755 575.187 86.4995 574.419 87.7795C573.683 89.0595 572.611 90.0835 571.203 90.8515C569.827 91.5875 568.131 91.9555 566.115 91.9555ZM566.115 88.6435C567.811 88.6435 569.155 88.2115 570.147 87.3475C571.171 86.4515 571.683 85.1715 571.683 83.5075C571.683 81.8755 571.171 80.6275 570.147 79.7635C569.155 78.8675 567.811 78.4195 566.115 78.4195C564.387 78.4195 563.011 78.8675 561.987 79.7635C560.995 80.6275 560.499 81.8755 560.499 83.5075C560.499 85.1715 560.995 86.4515 561.987 87.3475C563.011 88.2115 564.387 88.6435 566.115 88.6435ZM559.107 102.516C559.107 104.116 559.779 105.3 561.123 106.068C562.467 106.868 564.147 107.268 566.163 107.268C568.147 107.268 569.731 106.836 570.915 105.972C572.131 105.108 572.739 103.956 572.739 102.516C572.739 101.492 572.323 100.596 571.491 99.8275C570.659 99.0915 569.123 98.6595 566.883 98.5315C565.123 98.4035 563.603 98.2435 562.323 98.0515C561.011 98.7555 560.147 99.5075 559.731 100.308C559.315 101.14 559.107 101.876 559.107 102.516Z" fill="#3C3C3C"/>
<path fill-rule="evenodd" clip-rule="evenodd" d="M71.2734 73.9287L84.0055 81.2796L96.7375 73.9287L98.7375 77.3928L86.0055 84.7437L86.0055 99.4454H82.0055L82.0055 84.7437L69.2734 77.3928L71.2734 73.9287Z" fill="#3C3C3C"/>
<path fill-rule="evenodd" clip-rule="evenodd" d="M50.7379 49.6799L40.0059 55.8761L50.7379 62.0722L48.7379 65.5363L38.0059 59.3402V71.7325H34.0059V54.7214L48.7379 46.2158L50.7379 49.6799Z" fill="#3C3C3C"/>
<path fill-rule="evenodd" clip-rule="evenodd" d="M38.0059 95.4453V107.838L48.7379 101.641L50.7379 105.106L40.0059 111.302L50.7379 117.498L48.7379 120.962L34.0059 112.456V95.4453H38.0059Z" fill="#3C3C3C"/>
<path fill-rule="evenodd" clip-rule="evenodd" d="M86.0055 123.158V135.551L96.7375 129.354L98.7375 132.818L84.0055 141.324L69.2734 132.818L71.2734 129.354L82.0055 135.551V123.158H86.0055Z" fill="#3C3C3C"/>
<path fill-rule="evenodd" clip-rule="evenodd" d="M134.005 95.4453V112.456L119.273 120.962L117.273 117.498L128.005 111.302L117.273 105.106L119.273 101.641L130.005 107.838V95.4453H134.005Z" fill="#3C3C3C"/>
<path fill-rule="evenodd" clip-rule="evenodd" d="M119.273 46.2158L134.005 54.7214V71.7325H130.005V59.3402L119.273 65.5363L117.273 62.0722L128.005 55.8761L117.273 49.6799L119.273 46.2158Z" fill="#3C3C3C"/>
<path fill-rule="evenodd" clip-rule="evenodd" d="M84.0055 25.854L98.7375 34.3596L96.7375 37.8237L86.0055 31.6275V44.0198H82.0055V31.6275L71.2734 37.8237L69.2734 34.3596L84.0055 25.854Z" fill="#3C3C3C"/>
<ellipse cx="84.0062" cy="111.304" rx="2.00038" ry="2.00037" fill="#6F6F6F"/>
<ellipse cx="84.0062" cy="55.8744" rx="2.00038" ry="2.00038" fill="#6F6F6F"/>
<circle cx="60.0062" cy="55.8744" r="2.00038" fill="#B7B7B7"/>
<ellipse cx="72.0062" cy="48.9472" rx="2.00038" ry="2.00037" fill="#B7B7B7"/>
<ellipse cx="72.0062" cy="62.8055" rx="2.00038" ry="2.00038" fill="#5A5A5A"/>
<ellipse cx="72.0062" cy="104.374" rx="2.00038" ry="2.00038" fill="#5A5A5A"/>
<ellipse cx="72.0062" cy="118.23" rx="2.00038" ry="2.00037" fill="#B7B7B7"/>
<ellipse cx="96.0062" cy="48.9472" rx="2.00038" ry="2.00037" fill="#B7B7B7"/>
<ellipse cx="96.0062" cy="62.8055" rx="2.00038" ry="2.00038" fill="#5A5A5A"/>
<ellipse cx="96.0062" cy="104.374" rx="2.00038" ry="2.00038" fill="#5A5A5A"/>
<ellipse cx="96.0062" cy="118.23" rx="2.00038" ry="2.00037" fill="#B7B7B7"/>
<ellipse cx="108.005" cy="55.8744" rx="2.00038" ry="2.00038" fill="#B7B7B7"/>
<circle cx="60.0062" cy="69.7321" r="2.00038" fill="#6F6F6F"/>
<circle cx="60.0062" cy="83.589" r="2.00038" fill="#5A5A5A"/>
<ellipse cx="48.0062" cy="76.6637" rx="2.00038" ry="2.00038" fill="#B7B7B7"/>
<ellipse cx="48.0062" cy="90.5189" rx="2.00038" ry="2.00037" fill="#B7B7B7"/>
<ellipse cx="60.0062" cy="97.4459" rx="2.00038" ry="2.00038" fill="#6F6F6F"/>
<ellipse cx="108.005" cy="69.7321" rx="2.00038" ry="2.00038" fill="#6F6F6F"/>
<ellipse cx="60.0062" cy="111.304" rx="2.00038" ry="2.00037" fill="#B7B7B7"/>
<ellipse cx="108.006" cy="83.589" rx="2.00038" ry="2.00038" fill="#5A5A5A"/>
<ellipse cx="120.006" cy="76.6637" rx="2.00037" ry="2.00038" fill="#B7B7B7"/>
<ellipse cx="120.006" cy="90.5189" rx="2.00037" ry="2.00037" fill="#B7B7B7"/>
<ellipse cx="108.006" cy="97.4459" rx="2.00038" ry="2.00038" fill="#6F6F6F"/>
<ellipse cx="108.005" cy="111.304" rx="2.00038" ry="2.00037" fill="#B7B7B7"/>
<ellipse cx="100.006" cy="69.7321" rx="2.00038" ry="2.00038" fill="#494949"/>
<circle cx="92.0062" cy="111.304" r="2.00037" fill="#6F6F6F"/>
<circle cx="100.006" cy="111.304" r="2.00037" fill="#7F7F7F"/>
<ellipse cx="92.0062" cy="55.8744" rx="2.00037" ry="2.00038" fill="#6F6F6F"/>
<ellipse cx="76.0062" cy="55.8744" rx="2.00037" ry="2.00038" fill="#6F6F6F"/>
<ellipse cx="100.006" cy="55.8744" rx="2.00037" ry="2.00038" fill="#7F7F7F"/>
<ellipse cx="68.0062" cy="55.8744" rx="2.00037" ry="2.00038" fill="#7F7F7F"/>
<ellipse cx="52.0062" cy="55.8744" rx="2.00037" ry="2.00038" fill="#D3D3D3"/>
<ellipse cx="92.0062" cy="42.0201" rx="2.00037" ry="2.00038" fill="#D3D3D3"/>
<ellipse cx="76.0062" cy="42.0201" rx="2.00037" ry="2.00038" fill="#D3D3D3"/>
<ellipse cx="100.006" cy="42.0201" rx="2.00037" ry="2.00038" fill="#E6E6E6"/>
<ellipse cx="68.0062" cy="42.0201" rx="2.00037" ry="2.00038" fill="#E6E6E6"/>
<ellipse cx="80.0062" cy="48.9472" rx="2.00038" ry="2.00037" fill="#959595"/>
<circle cx="64.0062" cy="48.9472" r="2.00037" fill="#D3D3D3"/>
<circle cx="56.0062" cy="48.9472" r="2.00037" fill="#E6E6E6"/>
<ellipse cx="88.0062" cy="48.9472" rx="2.00038" ry="2.00037" fill="#959595"/>
<circle cx="80.0062" cy="62.8055" r="2.00038" fill="#494949"/>
<ellipse cx="88.0062" cy="62.8055" rx="2.00038" ry="2.00038" fill="#494949"/>
<ellipse cx="64.0062" cy="62.8055" rx="2.00037" ry="2.00038" fill="#6F6F6F"/>
<ellipse cx="56.0062" cy="62.8055" rx="2.00038" ry="2.00038" fill="#959595"/>
<ellipse cx="64.0062" cy="90.5189" rx="2.00037" ry="2.00037" fill="#494949"/>
<ellipse cx="80.0062" cy="104.374" rx="2.00038" ry="2.00038" fill="#494949"/>
<ellipse cx="88.0062" cy="104.374" rx="2.00038" ry="2.00038" fill="#494949"/>
<ellipse cx="64.0062" cy="104.374" rx="2.00037" ry="2.00038" fill="#6F6F6F"/>
<ellipse cx="56.0062" cy="104.374" rx="2.00038" ry="2.00038" fill="#959595"/>
<ellipse cx="56.0062" cy="118.23" rx="2.00038" ry="2.00037" fill="#E6E6E6"/>
<ellipse cx="80.0062" cy="118.23" rx="2.00038" ry="2.00037" fill="#959595"/>
<ellipse cx="64.0062" cy="118.23" rx="2.00037" ry="2.00037" fill="#D3D3D3"/>
<ellipse cx="88.0062" cy="118.23" rx="2.00038" ry="2.00037" fill="#959595"/>
<ellipse cx="104.006" cy="48.9472" rx="2.00037" ry="2.00037" fill="#D3D3D3"/>
<ellipse cx="104.006" cy="62.8055" rx="2.00037" ry="2.00038" fill="#6F6F6F"/>
<ellipse cx="112.006" cy="62.8055" rx="2.00037" ry="2.00038" fill="#959595"/>
<ellipse cx="112.006" cy="48.9472" rx="2.00037" ry="2.00038" fill="#E6E6E6"/>
<ellipse cx="104.006" cy="90.5189" rx="2.00037" ry="2.00037" fill="#494949"/>
<circle cx="112.006" cy="90.5189" r="2.00037" fill="#6F6F6F"/>
<ellipse cx="104.006" cy="104.374" rx="2.00037" ry="2.00038" fill="#5A5A5A"/>
<ellipse cx="112.006" cy="104.374" rx="2.00037" ry="2.00038" fill="#959595"/>
<ellipse cx="104.006" cy="118.23" rx="2.00037" ry="2.00037" fill="#D3D3D3"/>
<circle cx="112.006" cy="118.23" r="2.00037" fill="#E6E6E6"/>
<ellipse cx="116.006" cy="55.8744" rx="2.00037" ry="2.00038" fill="#D3D3D3"/>
<ellipse cx="68.0062" cy="69.7321" rx="2.00037" ry="2.00038" fill="#494949"/>
<ellipse cx="52.0062" cy="69.7321" rx="2.00037" ry="2.00038" fill="#959595"/>
<ellipse cx="44.0062" cy="69.7321" rx="2.00038" ry="2.00038" fill="#D3D3D3"/>
<circle cx="52.0062" cy="83.589" r="2.00038" fill="#7F7F7F"/>
<circle cx="44.0062" cy="83.589" r="2.00038" fill="#D3D3D3"/>
<ellipse cx="56.0062" cy="76.6637" rx="2.00038" ry="2.00038" fill="#6F6F6F"/>
<ellipse cx="64.0062" cy="76.6637" rx="2.00037" ry="2.00038" fill="#494949"/>
<ellipse cx="40.0062" cy="76.6637" rx="2.00038" ry="2.00038" fill="#E6E6E6"/>
<ellipse cx="56.0062" cy="90.5189" rx="2.00037" ry="2.00037" fill="#6F6F6F"/>
<ellipse cx="40.0062" cy="90.5189" rx="2.00038" ry="2.00037" fill="#E6E6E6"/>
<ellipse cx="68.0062" cy="97.4459" rx="2.00037" ry="2.00038" fill="#494949"/>
<ellipse cx="52.0062" cy="97.4459" rx="2.00038" ry="2.00038" fill="#959595"/>
<ellipse cx="44.0062" cy="97.4459" rx="2.00038" ry="2.00038" fill="#D3D3D3"/>
<ellipse cx="116.006" cy="69.7321" rx="2.00037" ry="2.00038" fill="#959595"/>
<ellipse cx="124.006" cy="69.7321" rx="2.00038" ry="2.00038" fill="#D3D3D3"/>
<circle cx="68.0062" cy="111.304" r="2.00037" fill="#7F7F7F"/>
<circle cx="68.0062" cy="125.158" r="2.00037" fill="#E6E6E6"/>
<ellipse cx="92.0062" cy="125.158" rx="2.00038" ry="2.00037" fill="#D3D3D3"/>
<circle cx="76.0062" cy="125.158" r="2.00037" fill="#D3D3D3"/>
<ellipse cx="100.006" cy="125.158" rx="2.00038" ry="2.00037" fill="#E6E6E6"/>
<circle cx="76.0062" cy="111.304" r="2.00037" fill="#6F6F6F"/>
<ellipse cx="52.0062" cy="111.304" rx="2.00038" ry="2.00037" fill="#D3D3D3"/>
<ellipse cx="116.006" cy="83.589" rx="2.00037" ry="2.00038" fill="#7F7F7F"/>
<ellipse cx="124.006" cy="83.589" rx="2.00038" ry="2.00038" fill="#D3D3D3"/>
<ellipse cx="128.006" cy="76.6637" rx="2.00037" ry="2.00038" fill="#E6E6E6"/>
<ellipse cx="112.006" cy="76.6637" rx="2.00037" ry="2.00038" fill="#6F6F6F"/>
<ellipse cx="104.006" cy="76.6637" rx="2.00037" ry="2.00038" fill="#494949"/>
<circle cx="128.006" cy="90.5189" r="2.00037" fill="#E6E6E6"/>
<ellipse cx="116.006" cy="97.4459" rx="2.00037" ry="2.00038" fill="#959595"/>
<ellipse cx="124.006" cy="97.4459" rx="2.00038" ry="2.00038" fill="#D3D3D3"/>
<ellipse cx="100.006" cy="97.4459" rx="2.00038" ry="2.00038" fill="#494949"/>
<circle cx="116.006" cy="111.304" r="2.00037" fill="#D3D3D3"/>
</svg>
