<svg id="TPM-logo-sm-1" width="307" height="84" viewBox="0 0 307 84" fill="none" xmlns="http://www.w3.org/2000/svg"><path d="M89.073 49.717V34.573h-5.016v-1.656h12.048v1.656h-5.016v15.144h-2.016ZM98.398 49.717v-17.28h2.016v7.416c.4-.736.968-1.304 1.704-1.704a4.795 4.795 0 0 1 2.4-.624c1.376 0 2.48.432 3.312 1.296.832.848 1.248 2.16 1.248 3.936v6.96h-1.992v-6.744c0-2.48-1-3.72-3-3.72-1.04 0-1.912.376-2.616 1.128-.704.736-1.056 1.792-1.056 3.168v6.168h-2.016ZM113.357 35.173c-.4 0-.736-.128-1.008-.384a1.415 1.415 0 0 1-.384-1.008c0-.384.128-.704.384-.96a1.415 1.415 0 0 1 1.008-.384c.384 0 .712.128.984.384s.408.576.408.96c0 .4-.136.736-.408 1.008-.272.256-.6.384-.984.384Zm-1.008 14.544V37.813h2.016v11.904h-2.016ZM117.875 49.717V37.813h1.824l.168 2.28a4.315 4.315 0 0 1 1.68-1.872c.752-.464 1.68-.696 2.784-.696v2.112h-.552c-.704 0-1.352.128-1.944.384-.592.24-1.064.656-1.416 1.248-.352.592-.528 1.408-.528 2.448v6h-2.016ZM131.548 50.005c-1.184 0-2.224-.272-3.12-.816a5.67 5.67 0 0 1-2.064-2.232c-.48-.944-.72-2.016-.72-3.216 0-1.2.248-2.264.744-3.192a5.499 5.499 0 0 1 2.064-2.208c.88-.544 1.92-.816 3.12-.816.976 0 1.84.2 2.592.6.752.4 1.336.96 1.752 1.68v-7.368h2.016v17.28h-1.824l-.192-1.968c-.384.576-.936 1.096-1.656 1.56-.72.464-1.624.696-2.712.696Zm.216-1.752c.8 0 1.504-.184 2.112-.552a3.83 3.83 0 0 0 1.44-1.584c.352-.672.528-1.456.528-2.352 0-.896-.176-1.68-.528-2.352a3.674 3.674 0 0 0-1.44-1.56c-.608-.384-1.312-.576-2.112-.576-.784 0-1.488.192-2.112.576a3.883 3.883 0 0 0-1.44 1.56c-.336.672-.504 1.456-.504 2.352 0 .896.168 1.68.504 2.352.352.672.832 1.2 1.44 1.584.624.368 1.328.552 2.112.552ZM147.69 49.717v-16.8h5.52c1.312 0 2.392.216 3.24.648.848.432 1.472 1.016 1.872 1.752.416.736.624 1.568.624 2.496 0 .912-.2 1.736-.6 2.472-.4.736-1.024 1.328-1.872 1.776-.848.432-1.936.648-3.264.648h-3.504v7.008h-2.016Zm2.016-8.712h3.456c1.344 0 2.296-.28 2.856-.84.576-.576.864-1.36.864-2.352 0-1.008-.288-1.792-.864-2.352-.56-.576-1.512-.864-2.856-.864h-3.456v6.408ZM161.469 49.717v-17.28h2.016v17.28h-2.016ZM170.749 50.005c-.992 0-1.816-.168-2.472-.504-.656-.336-1.144-.784-1.464-1.344a3.614 3.614 0 0 1-.48-1.824c0-1.216.464-2.152 1.392-2.808.928-.656 2.192-.984 3.792-.984h3.216v-.144c0-1.04-.272-1.824-.816-2.352-.544-.544-1.272-.816-2.184-.816-.784 0-1.464.2-2.04.6-.56.384-.912.952-1.056 1.704h-2.064c.08-.864.368-1.592.864-2.184a4.887 4.887 0 0 1 1.896-1.344 6.065 6.065 0 0 1 2.4-.48c1.664 0 2.912.448 3.744 1.344.848.88 1.272 2.056 1.272 3.528v7.32h-1.8l-.12-2.136c-.336.672-.832 1.248-1.488 1.728-.64.464-1.504.696-2.592.696Zm.312-1.704c.768 0 1.424-.2 1.968-.6.56-.4.984-.92 1.272-1.56.288-.64.432-1.312.432-2.016V44.1h-3.048c-1.184 0-2.024.208-2.52.624-.48.4-.72.904-.72 1.512 0 .624.224 1.128.672 1.512.464.368 1.112.552 1.944.552ZM185.245 50.005c-1.136 0-2.16-.256-3.072-.768a5.833 5.833 0 0 1-2.136-2.184c-.512-.944-.768-2.04-.768-3.288 0-1.248.256-2.336.768-3.264.528-.944 1.24-1.672 2.136-2.184.912-.528 1.936-.792 3.072-.792 1.408 0 2.592.368 3.552 1.104.976.736 1.592 1.72 1.848 2.952h-2.064a2.602 2.602 0 0 0-1.176-1.704c-.624-.416-1.352-.624-2.184-.624a3.78 3.78 0 0 0-1.896.504c-.592.336-1.072.84-1.44 1.512-.368.672-.552 1.504-.552 2.496s.184 1.824.552 2.496c.368.672.848 1.184 1.44 1.536a3.78 3.78 0 0 0 1.896.504c.832 0 1.56-.2 2.184-.6.624-.416 1.016-1 1.176-1.752h2.064c-.24 1.2-.848 2.176-1.824 2.928-.976.752-2.168 1.128-3.576 1.128ZM198.813 50.005c-1.136 0-2.144-.256-3.024-.768a5.712 5.712 0 0 1-2.088-2.184c-.496-.928-.744-2.024-.744-3.288 0-1.248.248-2.336.744-3.264.496-.944 1.184-1.672 2.064-2.184.896-.528 1.928-.792 3.096-.792 1.152 0 2.144.264 2.976.792a5.174 5.174 0 0 1 1.944 2.04 5.77 5.77 0 0 1 .672 2.736c0 .176-.008.352-.024.528v.6h-9.48c.048.912.256 1.672.624 2.28.384.592.856 1.04 1.416 1.344a3.854 3.854 0 0 0 1.824.456c.832 0 1.528-.192 2.088-.576.56-.384.968-.904 1.224-1.56h1.992a5.41 5.41 0 0 1-1.848 2.76c-.896.72-2.048 1.08-3.456 1.08Zm0-10.776a4.04 4.04 0 0 0-2.568.888c-.736.576-1.16 1.424-1.272 2.544h7.488c-.048-1.072-.416-1.912-1.104-2.52-.688-.608-1.536-.912-2.544-.912ZM213.596 49.717v-16.8h2.352l6.048 11.712 6-11.712h2.376v16.8h-2.016v-13.2l-5.616 10.8h-1.512l-5.616-10.776v13.176h-2.016ZM237.757 50.005c-.992 0-1.816-.168-2.472-.504-.656-.336-1.144-.784-1.464-1.344a3.614 3.614 0 0 1-.48-1.824c0-1.216.464-2.152 1.392-2.808.928-.656 2.192-.984 3.792-.984h3.216v-.144c0-1.04-.272-1.824-.816-2.352-.544-.544-1.272-.816-2.184-.816-.784 0-1.464.2-2.04.6-.56.384-.912.952-1.056 1.704h-2.064c.08-.864.368-1.592.864-2.184a4.887 4.887 0 0 1 1.896-1.344 6.065 6.065 0 0 1 2.4-.48c1.664 0 2.912.448 3.744 1.344.848.88 1.272 2.056 1.272 3.528v7.32h-1.8l-.12-2.136c-.336.672-.832 1.248-1.488 1.728-.64.464-1.504.696-2.592.696Zm.312-1.704c.768 0 1.424-.2 1.968-.6.56-.4.984-.92 1.272-1.56.288-.64.432-1.312.432-2.016V44.1h-3.048c-1.184 0-2.024.208-2.52.624-.48.4-.72.904-.72 1.512 0 .624.224 1.128.672 1.512.464.368 1.112.552 1.944.552ZM246.781 49.717v-17.28h2.016v10.392l4.872-5.016h2.472l-5.28 5.376 5.952 6.528h-2.568l-5.448-6.168v6.168h-2.016ZM260.099 35.173c-.4 0-.736-.128-1.008-.384a1.415 1.415 0 0 1-.384-1.008c0-.384.128-.704.384-.96a1.415 1.415 0 0 1 1.008-.384c.384 0 .712.128.984.384s.408.576.408.96c0 .4-.136.736-.408 1.008-.272.256-.6.384-.984.384Zm-1.008 14.544V37.813h2.016v11.904h-2.016ZM264.617 49.717V37.813h1.824l.12 2.136a4.323 4.323 0 0 1 1.656-1.776c.72-.432 1.536-.648 2.448-.648 1.408 0 2.528.432 3.36 1.296.848.848 1.272 2.16 1.272 3.936v6.96h-2.016v-6.744c0-2.48-1.024-3.72-3.072-3.72-1.024 0-1.88.376-2.568 1.128-.672.736-1.008 1.792-1.008 3.168v6.168h-2.016ZM283.055 45.973a6.14 6.14 0 0 1-1.848-.264l-1.2 1.128c.176.128.392.24.648.336.272.08.656.16 1.152.24.496.064 1.192.136 2.088.216 1.6.112 2.744.48 3.432 1.104.688.624 1.032 1.44 1.032 2.448 0 .688-.192 1.344-.576 1.968-.368.624-.944 1.136-1.728 1.536-.768.4-1.76.6-2.976.6-1.072 0-2.024-.144-2.856-.432-.832-.272-1.48-.696-1.944-1.272-.464-.56-.696-1.272-.696-2.136 0-.448.12-.936.36-1.464.24-.512.688-1 1.344-1.464a6.045 6.045 0 0 1-.912-.456 5.795 5.795 0 0 1-.672-.576v-.552l2.04-2.016c-.944-.8-1.416-1.856-1.416-3.168 0-.784.184-1.496.552-2.136.368-.64.904-1.144 1.608-1.512.704-.384 1.56-.576 2.568-.576.688 0 1.312.096 1.872.288h4.392v1.512l-2.232.096c.464.672.696 1.448.696 2.328 0 .784-.192 1.496-.576 2.136-.368.64-.904 1.152-1.608 1.536-.688.368-1.536.552-2.544.552Zm0-1.656c.848 0 1.52-.216 2.016-.648.512-.448.768-1.088.768-1.92 0-.816-.256-1.44-.768-1.872-.496-.448-1.168-.672-2.016-.672-.864 0-1.552.224-2.064.672-.496.432-.744 1.056-.744 1.872 0 .832.248 1.472.744 1.92.512.432 1.2.648 2.064.648Zm-3.504 6.936c0 .8.336 1.392 1.008 1.776.672.4 1.512.6 2.52.6.992 0 1.784-.216 2.376-.648.608-.432.912-1.008.912-1.728 0-.512-.208-.96-.624-1.344-.416-.368-1.184-.584-2.304-.648-.88-.064-1.64-.144-2.28-.24-.656.352-1.088.728-1.296 1.128-.208.416-.312.784-.312 1.104Z" fill="#3C3C3C"/><path fill-rule="evenodd" clip-rule="evenodd" d="M35.636 36.96 42 40.634l6.367-3.675 1 1.731L43 42.367v7.35h-2v-7.35l-6.365-3.675 1-1.733ZM25.367 24.835l-5.366 3.098 5.366 3.099-1 1.732-5.366-3.099v6.197h-2v-8.506l7.366-4.253 1 1.732ZM19.002 47.718v6.196l5.366-3.098 1 1.732-5.366 3.098 5.366 3.098-1 1.732-7.366-4.253v-8.505h2ZM43.002 61.575v6.196l5.365-3.099 1 1.733-7.365 4.252-7.367-4.252 1-1.733 5.367 3.099v-6.197h2ZM67.001 47.718v8.505l-7.366 4.253-1-1.732 5.366-3.098-5.366-3.098 1-1.732 5.366 3.098v-6.196h2ZM59.636 23.103 67 27.356v8.506h-2v-6.197l-5.366 3.099-1-1.733 5.366-3.098-5.366-3.098 1-1.732ZM42.002 12.922l7.365 4.253-1 1.732-5.365-3.098v6.196h-2v-6.196l-5.367 3.098-1-1.732 7.367-4.253Z" fill="#3C3C3C"/><circle cx="42.002" cy="55.647" fill="#6F6F6F" r="1"/><circle cx="42.002" cy="27.932" r="1" fill="#6F6F6F"/><circle cx="30.002" cy="27.933" fill="#B7B7B7" r="1"/><circle cx="36.002" cy="24.469" fill="#B7B7B7" r="1"/><circle cx="36.002" cy="31.398" fill="#5A5A5A" r="1"/><circle cx="36.002" cy="52.182" fill="#5A5A5A" r="1"/><circle cx="36.002" cy="59.11" r="1" fill="#B7B7B7"/><circle cx="48.002" cy="24.469" fill="#B7B7B7" r="1"/><circle cx="48.002" cy="31.398" r="1" fill="#5A5A5A"/><circle cx="48.002" cy="52.182" fill="#5A5A5A" r="1"/><circle cx="48.002" cy="59.11" fill="#B7B7B7" r="1"/><circle cx="54.001" cy="27.933" fill="#B7B7B7" r="1"/><circle cx="30.002" cy="34.861" fill="#6F6F6F" r="1"/><circle cx="30.002" cy="41.79" fill="#5A5A5A" r="1"/><circle cx="24.002" cy="38.327" fill="#B7B7B7" r="1"/><circle cx="24.002" cy="45.255" fill="#B7B7B7" r="1"/><circle cx="30.002" cy="48.718" fill="#6F6F6F" r="1"/><circle cx="54.001" cy="34.861" fill="#6F6F6F" r="1"/><circle cx="30.002" cy="55.647" fill="#B7B7B7" r="1"/><circle cx="54.001" cy="41.79" fill="#5A5A5A" r="1"/><circle cx="60.002" cy="38.327" fill="#B7B7B7" r="1"/><circle cx="60.002" cy="45.255" fill="#B7B7B7" r="1"/><circle cx="54.001" cy="48.718" fill="#6F6F6F" r="1"/><circle cx="54.001" cy="55.647" r="1" fill="#B7B7B7"/><circle cx="50.002" cy="34.861" fill="#494949" r="1"/><circle cx="46.002" cy="55.647" fill="#6F6F6F" r="1"/><circle cx="50.002" cy="55.647" fill="#7F7F7F" r="1"/><circle cx="46.002" cy="27.933" fill="#6F6F6F" r="1"/><circle cx="38.002" cy="27.933" fill="#6F6F6F" r="1"/><circle cx="50.002" cy="27.933" r="1" fill="#7F7F7F"/><circle cx="34.002" cy="27.933" fill="#7F7F7F" r="1"/><circle cx="26.002" cy="27.933" fill="#D3D3D3" r="1"/><circle cx="46.002" cy="21.005" fill="#D3D3D3" r="1"/><circle cx="38.002" cy="21.005" fill="#D3D3D3" r="1"/><circle cx="50.002" cy="21.005" fill="#E6E6E6" r="1"/><circle cx="34.002" cy="21.005" fill="#E6E6E6" r="1"/><circle cx="40.002" cy="24.469" fill="#959595" r="1"/><circle cx="32.002" cy="24.469" fill="#D3D3D3" r="1"/><circle cx="28.002" cy="24.469" r="1" fill="#E6E6E6"/><circle cx="44.002" cy="24.469" fill="#959595" r="1"/><circle cx="40.002" cy="31.398" r="1" fill="#494949"/><circle cx="44.002" cy="31.398" fill="#494949" r="1"/><circle cx="32.002" cy="31.398" fill="#6F6F6F" r="1"/><circle cx="28.002" cy="31.398" fill="#959595" r="1"/><circle cx="32.002" cy="45.255" fill="#494949" r="1"/><circle cx="40.002" cy="52.182" fill="#494949" r="1"/><circle cx="44.002" cy="52.182" fill="#494949" r="1"/><circle cx="32.002" cy="52.182" fill="#6F6F6F" r="1"/><circle cx="28.002" cy="52.182" fill="#959595" r="1"/><circle cx="28.002" cy="59.11" fill="#E6E6E6" r="1"/><circle cx="40.002" cy="59.11" fill="#959595" r="1"/><circle cx="32.002" cy="59.11" fill="#D3D3D3" r="1"/><circle cx="44.002" cy="59.11" fill="#959595" r="1"/><circle cx="52.002" cy="24.469" fill="#D3D3D3" r="1"/><circle cx="52.002" cy="31.398" fill="#6F6F6F" r="1"/><circle cx="56.002" cy="31.398" fill="#959595" r="1"/><circle cx="56.002" cy="24.469" fill="#E6E6E6" r="1"/><circle cx="52.002" cy="45.255" fill="#494949" r="1"/><circle cx="56.002" cy="45.255" fill="#6F6F6F" r="1"/><circle cx="52.002" cy="52.182" fill="#5A5A5A" r="1"/><circle cx="56.002" cy="52.182" fill="#959595" r="1"/><circle cx="52.002" cy="59.11" fill="#D3D3D3" r="1"/><circle cx="56.002" cy="59.11" r="1" fill="#E6E6E6"/><circle cx="58.002" cy="27.933" fill="#D3D3D3" r="1"/><circle cx="34.002" cy="34.861" r="1" fill="#494949"/><circle cx="26.002" cy="34.861" fill="#959595" r="1"/><circle cx="22.002" cy="34.861" fill="#D3D3D3" r="1"/><circle cx="26.002" cy="41.79" fill="#7F7F7F" r="1"/><circle cx="22.002" cy="41.79" fill="#D3D3D3" r="1"/><circle cx="28.002" cy="38.327" fill="#6F6F6F" r="1"/><circle cx="32.002" cy="38.327" fill="#494949" r="1"/><circle cx="20.002" cy="38.327" fill="#E6E6E6" r="1"/><circle cx="28.002" cy="45.255" fill="#6F6F6F" r="1"/><circle cx="20.002" cy="45.255" r="1" fill="#E6E6E6"/><circle cx="34.002" cy="48.718" fill="#494949" r="1"/><circle cx="26.002" cy="48.718" fill="#959595" r="1"/><circle cx="22.002" cy="48.718" fill="#D3D3D3" r="1"/><circle cx="58.002" cy="34.861" fill="#959595" r="1"/><circle cx="62.002" cy="34.861" fill="#D3D3D3" r="1"/><circle cx="34.002" cy="55.647" fill="#7F7F7F" r="1"/><circle cx="34.002" cy="62.574" r="1" fill="#E6E6E6"/><circle cx="46.002" cy="62.574" fill="#D3D3D3" r="1"/><circle cx="38.002" cy="62.574" r="1" fill="#D3D3D3"/><circle cx="50.002" cy="62.574" fill="#E6E6E6" r="1"/><circle cx="38.002" cy="55.647" fill="#6F6F6F" r="1"/><circle cx="26.002" cy="55.647" fill="#D3D3D3" r="1"/><circle cx="58.002" cy="41.79" fill="#7F7F7F" r="1"/><circle cx="62.002" cy="41.79" fill="#D3D3D3" r="1"/><circle cx="64.002" cy="38.327" r="1" fill="#E6E6E6"/><circle cx="56.002" cy="38.327" r="1" fill="#6F6F6F"/><circle cx="52.002" cy="38.327" fill="#494949" r="1"/><circle cx="64.002" cy="45.255" fill="#E6E6E6" r="1"/><circle cx="58.002" cy="48.718" fill="#959595" r="1"/><circle cx="62.002" cy="48.718" fill="#D3D3D3" r="1"/><circle cx="50.002" cy="48.718" fill="#494949" r="1"/><circle cx="58.002" cy="55.647" r="1" fill="#D3D3D3"/></svg>
